<?xml version="1.0" encoding="utf-8"?>
<!-- Generator: Adobe Illustrator 15.1.0, SVG Export Plug-In  -->
<!DOCTYPE svg PUBLIC "-//W3C//DTD SVG 1.1//EN" "http://www.w3.org/Graphics/SVG/1.1/DTD/svg11.dtd" [
	<!ENTITY ns_flows "http://ns.adobe.com/Flows/1.0/">
]>
<svg version="1.1"
	 xmlns="http://www.w3.org/2000/svg" xmlns:xlink="http://www.w3.org/1999/xlink" xmlns:a="http://ns.adobe.com/AdobeSVGViewerExtensions/3.0/"
	 x="0px" y="0px" width="220px" height="86px" viewBox="0 0 220 86" enable-background="new 0 0 220 86" xml:space="preserve">
<defs>
</defs>
<path d="M151.28,35.08c-1.02-1.55-2.3-2.75-3.85-3.62c-1.55-0.87-3.36-1.3-5.45-1.3c-2.04,0-3.8,0.3-5.27,0.9s-2.72,1.37-3.74,2.32
	s-1.84,2-2.46,3.15c-0.62,1.15-1.11,2.29-1.46,3.41v17.44c0.44,1.2,1.04,2.31,1.79,3.34c0.75,1.03,1.66,1.93,2.72,2.69
	c1.07,0.76,2.31,1.35,3.73,1.78c1.42,0.42,3.01,0.63,4.76,0.63c2.06,0,3.87-0.43,5.41-1.3c1.55-0.87,2.82-2.08,3.83-3.64
	c1.01-1.56,1.76-3.4,2.27-5.54c0.5-2.13,0.76-4.46,0.76-7v-0.74c0-2.53-0.25-4.86-0.76-7C153.06,38.47,152.3,36.63,151.28,35.08z"/>
<path d="M112.2,35.38c-1.27-1.58-2.81-2.85-4.64-3.8s-3.9-1.42-6.22-1.42s-4.39,0.47-6.22,1.42s-3.37,2.21-4.62,3.8
	c-1.25,1.58-2.21,3.4-2.88,5.45c-0.67,2.05-1,4.19-1,6.42v1.48c0,2.27,0.33,4.44,1,6.5c0.67,2.06,1.63,3.88,2.9,5.45
	c1.27,1.57,2.81,2.82,4.64,3.74c1.83,0.93,3.91,1.39,6.26,1.39c2.32,0,4.39-0.46,6.21-1.39c1.82-0.93,3.35-2.17,4.61-3.74
	c1.25-1.57,2.21-3.39,2.88-5.45c0.67-2.06,1-4.23,1-6.5v-1.48c0-2.23-0.33-4.36-1-6.42C114.44,38.78,113.47,36.96,112.2,35.38z"/>
<path d="M191.23,35.38c-1.27-1.58-2.81-2.85-4.64-3.8s-3.9-1.42-6.22-1.42s-4.39,0.47-6.22,1.42s-3.37,2.21-4.62,3.8
	s-2.21,3.4-2.88,5.45c-0.67,2.05-1,4.19-1,6.42v1.48c0,2.27,0.33,4.44,1,6.5c0.67,2.06,1.63,3.88,2.9,5.45
	c1.27,1.57,2.81,2.82,4.64,3.74c1.83,0.93,3.91,1.39,6.26,1.39c2.32,0,4.39-0.46,6.21-1.39c1.82-0.93,3.35-2.17,4.61-3.74
	c1.25-1.57,2.21-3.39,2.88-5.45c0.67-2.06,1-4.23,1-6.5v-1.48c0-2.23-0.33-4.36-1-6.42C193.47,38.78,192.5,36.96,191.23,35.38z"/>
<path d="M0,0v85.5h219.5V0H0z M76.06,67h-1.9V42.39c0-2.41-0.26-4.42-0.77-6.01c-0.52-1.59-1.24-2.85-2.16-3.78
	c-0.93-0.93-2.03-1.58-3.3-1.95c-1.28-0.37-2.67-0.55-4.17-0.53c-1.5,0.02-2.87,0.23-4.1,0.62s-2.34,0.9-3.32,1.53
	s-1.84,1.35-2.57,2.16c-0.73,0.81-1.34,1.63-1.85,2.48c-0.5,0.84-0.9,1.68-1.18,2.51c-0.28,0.83-0.45,1.59-0.49,2.27V67h-1.9V41.69
	c0-2.27-0.26-4.15-0.77-5.64c-0.52-1.49-1.24-2.67-2.16-3.55c-0.93-0.88-2.03-1.49-3.3-1.85c-1.28-0.35-2.67-0.53-4.17-0.53
	c-2.11,0-3.95,0.43-5.52,1.3c-1.57,0.87-2.9,1.95-3.97,3.25c-1.08,1.3-1.93,2.7-2.57,4.18c-0.63,1.49-1.07,2.85-1.3,4.1V67h-1.93
	V28.96h1.93v9c0.56-1.36,1.27-2.63,2.13-3.81c0.86-1.18,1.86-2.21,3.01-3.08c1.15-0.87,2.42-1.55,3.81-2.06
	c1.39-0.5,2.9-0.76,4.52-0.76c3.19,0,5.79,0.7,7.82,2.11c2.03,1.41,3.36,3.7,3.99,6.89c0.52-1.27,1.21-2.44,2.09-3.53
	s1.92-2.04,3.11-2.85s2.53-1.45,4.01-1.92c1.48-0.47,3.07-0.7,4.78-0.7c1.92,0,3.64,0.26,5.15,0.79s2.79,1.36,3.83,2.5
	c1.04,1.14,1.84,2.6,2.39,4.38c0.55,1.78,0.83,3.94,0.83,6.47V67z M118,48.72c0,2.79-0.4,5.34-1.2,7.66
	c-0.8,2.32-1.93,4.32-3.39,5.99c-1.46,1.68-3.22,2.98-5.26,3.92s-4.29,1.41-6.75,1.41c-2.48,0-4.75-0.47-6.8-1.41
	c-2.05-0.94-3.81-2.24-5.27-3.92c-1.46-1.68-2.6-3.67-3.41-5.99s-1.21-4.87-1.21-7.66v-1.48c0-2.79,0.4-5.34,1.21-7.66
	s1.95-4.32,3.41-5.99c1.46-1.68,3.22-2.98,5.26-3.92c2.04-0.94,4.29-1.41,6.75-1.41c2.48,0,4.75,0.47,6.8,1.41
	c2.05,0.94,3.8,2.24,5.26,3.92c1.45,1.68,2.58,3.67,3.39,5.99s1.21,4.88,1.21,7.66V48.72z M156.29,48.33c0,2.91-0.32,5.55-0.97,7.93
	c-0.64,2.38-1.58,4.42-2.79,6.12c-1.22,1.7-2.71,3.01-4.48,3.94s-3.78,1.39-6.03,1.39c-1.57,0-3.02-0.17-4.34-0.51
	s-2.53-0.81-3.6-1.41c-1.08-0.6-2.04-1.31-2.88-2.13c-0.84-0.82-1.56-1.71-2.14-2.67V67h-1.9V13h1.9v22.89
	c0.61-1.15,1.33-2.19,2.16-3.13c0.83-0.94,1.79-1.74,2.87-2.41c1.08-0.67,2.27-1.18,3.59-1.55c1.31-0.36,2.74-0.54,4.29-0.54
	c2.25,0,4.27,0.45,6.05,1.34c1.78,0.89,3.29,2.17,4.52,3.83c1.23,1.66,2.17,3.69,2.81,6.08s0.97,5.09,0.97,8.09V48.33z
	 M197.04,48.72c0,2.79-0.4,5.34-1.2,7.66s-1.93,4.32-3.39,5.99c-1.46,1.68-3.22,2.98-5.26,3.92s-4.29,1.41-6.75,1.41
	c-2.48,0-4.75-0.47-6.8-1.41s-3.81-2.24-5.27-3.92c-1.46-1.68-2.6-3.67-3.41-5.99s-1.21-4.87-1.21-7.66v-1.48
	c0-2.79,0.4-5.34,1.21-7.66s1.95-4.32,3.41-5.99c1.46-1.68,3.22-2.98,5.26-3.92c2.04-0.94,4.29-1.41,6.75-1.41
	c2.48,0,4.75,0.47,6.8,1.41c2.05,0.94,3.8,2.24,5.26,3.92c1.45,1.68,2.58,3.67,3.39,5.99s1.21,4.88,1.21,7.66V48.72z"/>
<path fill="#FFFFFF" d="M72.85,31.54c-1.04-1.14-2.32-1.97-3.83-2.5s-3.23-0.79-5.15-0.79c-1.71,0-3.3,0.23-4.78,0.7
	c-1.48,0.47-2.81,1.11-4.01,1.92s-2.23,1.76-3.11,2.85s-1.58,2.27-2.09,3.53c-0.63-3.19-1.96-5.48-3.99-6.89
	c-2.03-1.41-4.64-2.11-7.82-2.11c-1.62,0-3.12,0.25-4.52,0.76c-1.39,0.5-2.67,1.19-3.81,2.06c-1.15,0.87-2.15,1.89-3.01,3.08
	c-0.86,1.18-1.56,2.46-2.13,3.81v-9h-1.93V67h1.93V42.95c0.23-1.24,0.67-2.61,1.3-4.1c0.63-1.49,1.49-2.88,2.57-4.18
	c1.08-1.3,2.4-2.38,3.97-3.25c1.57-0.87,3.41-1.3,5.52-1.3c1.5,0,2.89,0.18,4.17,0.53c1.28,0.35,2.38,0.97,3.3,1.85
	c0.93,0.88,1.65,2.06,2.16,3.55c0.52,1.49,0.77,3.37,0.77,5.64V67h1.9V41.69c0.05-0.68,0.21-1.44,0.49-2.27
	c0.28-0.83,0.67-1.67,1.18-2.51c0.5-0.84,1.12-1.67,1.85-2.48c0.73-0.81,1.58-1.53,2.57-2.16s2.09-1.14,3.32-1.53s2.6-0.59,4.1-0.62
	c1.5-0.02,2.89,0.15,4.17,0.53c1.28,0.38,2.38,1.03,3.3,1.95c0.93,0.93,1.65,2.19,2.16,3.78c0.52,1.59,0.77,3.6,0.77,6.01V67h1.9
	V42.39c0-2.53-0.28-4.69-0.83-6.47C74.69,34.14,73.89,32.68,72.85,31.54z"/>
<path fill="#FFFFFF" d="M113.4,33.58c-1.45-1.68-3.21-2.98-5.26-3.92c-2.05-0.94-4.32-1.41-6.8-1.41c-2.46,0-4.71,0.47-6.75,1.41
	c-2.04,0.94-3.79,2.24-5.26,3.92c-1.46,1.68-2.6,3.67-3.41,5.99s-1.21,4.88-1.21,7.66v1.48c0,2.79,0.4,5.34,1.21,7.66
	s1.95,4.32,3.41,5.99c1.46,1.68,3.22,2.98,5.27,3.92c2.05,0.94,4.32,1.41,6.8,1.41c2.46,0,4.71-0.47,6.75-1.41s3.79-2.24,5.26-3.92
	c1.46-1.68,2.6-3.67,3.39-5.99c0.8-2.32,1.2-4.87,1.2-7.66v-1.48c0-2.79-0.4-5.34-1.21-7.66S114.85,35.26,113.4,33.58z
	 M116.11,48.72c0,2.27-0.33,4.44-1,6.5c-0.67,2.06-1.63,3.88-2.88,5.45c-1.25,1.57-2.79,2.82-4.61,3.74
	c-1.82,0.93-3.88,1.39-6.21,1.39c-2.34,0-4.43-0.46-6.26-1.39c-1.83-0.93-3.38-2.17-4.64-3.74c-1.27-1.57-2.23-3.39-2.9-5.45
	c-0.67-2.06-1-4.23-1-6.5v-1.48c0-2.23,0.33-4.36,1-6.42c0.67-2.05,1.63-3.87,2.88-5.45c1.25-1.58,2.79-2.85,4.62-3.8
	s3.9-1.42,6.22-1.42s4.39,0.47,6.22,1.42s3.38,2.21,4.64,3.8s2.23,3.4,2.9,5.45c0.67,2.05,1,4.19,1,6.42V48.72z"/>
<path fill="#FFFFFF" d="M152.51,33.43c-1.23-1.66-2.74-2.94-4.52-3.83c-1.78-0.89-3.8-1.34-6.05-1.34c-1.55,0-2.98,0.18-4.29,0.54
	c-1.31,0.36-2.51,0.88-3.59,1.55c-1.08,0.67-2.03,1.47-2.87,2.41c-0.83,0.94-1.55,1.98-2.16,3.13V13h-1.9v54h1.9v-6.01
	c0.59,0.96,1.3,1.85,2.14,2.67c0.84,0.82,1.8,1.53,2.88,2.13c1.08,0.6,2.28,1.07,3.6,1.41s2.77,0.51,4.34,0.51
	c2.25,0,4.26-0.46,6.03-1.39s3.26-2.24,4.48-3.94c1.22-1.7,2.15-3.74,2.79-6.12c0.64-2.38,0.97-5.02,0.97-7.93v-0.74
	c0-3-0.32-5.7-0.97-8.09S153.74,35.09,152.51,33.43z M154.32,48.33c0,2.53-0.25,4.86-0.76,7c-0.5,2.13-1.26,3.98-2.27,5.54
	c-1.01,1.56-2.29,2.77-3.83,3.64c-1.55,0.87-3.35,1.3-5.41,1.3c-1.76,0-3.35-0.21-4.76-0.63c-1.42-0.42-2.66-1.01-3.73-1.78
	c-1.07-0.76-1.97-1.66-2.72-2.69c-0.75-1.03-1.35-2.14-1.79-3.34V39.93c0.35-1.13,0.84-2.26,1.46-3.41c0.62-1.15,1.44-2.2,2.46-3.15
	s2.27-1.72,3.74-2.32s3.23-0.9,5.27-0.9c2.09,0,3.9,0.43,5.45,1.3c1.55,0.87,2.83,2.07,3.85,3.62s1.78,3.39,2.29,5.52
	c0.5,2.13,0.76,4.46,0.76,7V48.33z"/>
<path fill="#FFFFFF" d="M192.43,33.58c-1.45-1.68-3.21-2.98-5.26-3.92c-2.05-0.94-4.32-1.41-6.8-1.41c-2.46,0-4.71,0.47-6.75,1.41
	c-2.04,0.94-3.79,2.24-5.26,3.92c-1.46,1.68-2.6,3.67-3.41,5.99s-1.21,4.88-1.21,7.66v1.48c0,2.79,0.4,5.34,1.21,7.66
	s1.95,4.32,3.41,5.99c1.46,1.68,3.22,2.98,5.27,3.92s4.32,1.41,6.8,1.41c2.46,0,4.71-0.47,6.75-1.41s3.79-2.24,5.26-3.92
	c1.46-1.68,2.6-3.67,3.39-5.99s1.2-4.87,1.2-7.66v-1.48c0-2.79-0.4-5.34-1.21-7.66S193.88,35.26,192.43,33.58z M195.14,48.72
	c0,2.27-0.33,4.44-1,6.5c-0.67,2.06-1.63,3.88-2.88,5.45c-1.25,1.57-2.79,2.82-4.61,3.74c-1.82,0.93-3.88,1.39-6.21,1.39
	c-2.34,0-4.43-0.46-6.26-1.39c-1.83-0.93-3.38-2.17-4.64-3.74c-1.27-1.57-2.23-3.39-2.9-5.45c-0.67-2.06-1-4.23-1-6.5v-1.48
	c0-2.23,0.33-4.36,1-6.42c0.67-2.05,1.63-3.87,2.88-5.45s2.79-2.85,4.62-3.8s3.9-1.42,6.22-1.42s4.39,0.47,6.22,1.42
	s3.38,2.21,4.64,3.8s2.23,3.4,2.9,5.45c0.67,2.05,1,4.19,1,6.42V48.72z"/>
</svg>
